ply
format ascii 1.0
element vertex 116
comment vertices
property float x
property float y
property float z
end_header
-0.463856995105743408 1.88358843326568604 -1.20313584804534912
1.12354671955108643 2.64408349990844727 -1.08559167385101318
-0.28654170036315918 3.8946385383605957 -1.07924056053161621
0.0272991284728050232 2.71093034744262695 -1.11496901512145996
0.550566315650939941 2.09817647933959961 -1.11748719215393066
0.244777500629425049 3.06284117698669434 -1.09233593940734863
-1.093117356300354 2.45980954170227051 -1.09909689426422119
-0.294596254825592041 3.9042205810546875 -1.09349429607391357
0.312402963638305664 2.74655914306640625 -1.14371621608734131
1.0943368673324585 2.63330888748168945 -1.07847940921783447
0.195040494203567505 1.3482820987701416 -1.11681008338928223
-0.0651965215802192688 2.46113276481628418 -1.10061335563659668
0.0236186683177947998 2.91027426719665527 -1.156227707862854
0.0390194691717624664 2.64882063865661621 -1.13714504241943359
0.673388004302978516 3.43291163444519043 -1.11245346069335938
0.68587946891784668 2.1922910213470459 -1.08964025974273682
-0.187633663415908813 2.19858193397521973 -1.20162868499755859
-0.622243285179138184 2.66008090972900391 -1.17930376529693604
1.1113736629486084 2.63205409049987793 -1.07373428344726562
-0.384114891290664673 2.14453387260437012 -1.17773330211639404
-0.398324638605117798 3.78345608711242676 -1.11217296123504639
0.756545543670654297 3.54742765426635742 -1.10718464851379395
0.996619105339050293 2.75842666625976562 -1.11484146118164062
0.68255317211151123 2.21270179748535156 -1.10918939113616943
-1.09597313404083252 2.4623565673828125 -1.05191516876220703
0.194236889481544495 1.34500157833099365 -1.13026130199432373
0.676320374011993408 2.19896531105041504 -1.10134518146514893
0.905794024467468262 2.69620800018310547 -1.12193202972412109
0.0889052152633666992 2.73692774772644043 -1.15043103694915771
0.205626547336578369 1.36199939250946045 -1.09090828895568848
-0.168672740459442139 2.05845427513122559 -1.20034265518188477
0.0640602484345436096 2.78485512733459473 -1.15135955810546875
1.08266091346740723 2.6445307731628418 -1.06799101829528809
0.0673551410436630249 2.78710627555847168 -1.15063738822937012
0.0734774395823478699 2.70001959800720215 -1.12148690223693848
0.0223658718168735504 2.71340084075927734 -1.1171259880065918
-0.385087579488754272 2.18557643890380859 -1.14837813377380371
0.112869478762149811 2.88893818855285645 -1.12983167171478271
-0.0662076026201248169 2.41334772109985352 -1.17468631267547607
0.678741991519927979 2.19767951965332031 -1.0923541784286499
-0.311296731233596802 3.90669369697570801 -1.07825100421905518
-1.08970081806182861 2.46043086051940918 -1.10034525394439697
0.773209691047668457 3.54341769218444824 -1.12122952938079834
-0.0334119126200675964 3.18479776382446289 -1.15964746475219727
-0.298458188772201538 3.90275311470031738 -1.10243904590606689
-0.10580870509147644 2.36565136909484863 -1.15681242942810059
0.749171733856201172 3.55896520614624023 -1.1118389368057251
1.09434127807617188 2.67524147033691406 -1.09610497951507568
-0.242891132831573486 2.03089547157287598 -1.19461262226104736
1.23049986362457275 2.6410212516784668 -1.09839820861816406
0.770430564880371094 3.57685494422912598 -1.12099361419677734
-0.135247096419334412 2.4826056957244873 -1.1385502815246582
1.10182487964630127 2.63392925262451172 -1.07969307899475098
0.687292337417602539 2.21090030670166016 -1.1043696403503418
0.198350757360458374 1.35188663005828857 -1.12685871124267578
0.202083602547645569 1.53603518009185791 -1.1172788143157959
0.669321000576019287 2.21891617774963379 -1.09203898906707764
-1.08697199821472168 2.46176004409790039 -1.0912860631942749
1.13248741626739502 2.63290715217590332 -1.07893097400665283
-0.653862118721008301 1.87799358367919922 -1.13333868980407715
0.758970797061920166 3.55160808563232422 -1.10949671268463135
-1.09261441230773926 2.45987772941589355 -1.07026755809783936
0.738133132457733154 3.56533336639404297 -1.10251963138580322
0.732365667819976807 3.55605006217956543 -1.14306473731994629
0.667211592197418213 2.21408224105834961 -1.12733781337738037
0.0767232924699783325 2.68127799034118652 -1.11673331260681152
0.232901379466056824 2.91144204139709473 -1.14053487777709961
-0.173409685492515564 2.51366686820983887 -1.12888622283935547
0.179239183664321899 1.35249423980712891 -1.11582636833190918
-0.433007180690765381 2.00702095031738281 -1.2032468318939209
-0.461257368326187134 1.9588395357131958 -1.20170187950134277
-0.0924166887998580933 2.67438721656799316 -1.14975428581237793
0.556161940097808838 2.69632506370544434 -1.09056651592254639
0.193247169256210327 1.35974287986755371 -1.10015380382537842
0.690104484558105469 2.19123601913452148 -1.08353495597839355
0.696122407913208008 3.5116732120513916 -1.0948333740234375
0.668269813060760498 2.20806479454040527 -1.0917431116104126
0.691130220890045166 2.20702552795410156 -1.07568585872650146
1.10341095924377441 2.64885044097900391 -1.07807564735412598
0.68476337194442749 2.20802903175354004 -1.11074364185333252
-0.0260711759328842163 2.86287283897399902 -1.17922639846801758
0.121500842273235321 2.81312203407287598 -1.13649225234985352
0.734167218208312988 3.57761359214782715 -1.12045609951019287
0.093098767101764679 2.69474697113037109 -1.16422915458679199
0.992480576038360596 3.07007884979248047 -1.12976551055908203
-0.284957826137542725 2.27487540245056152 -1.15396738052368164
0.671485543251037598 2.20339560508728027 -1.10662972927093506
1.10609221458435059 2.63793420791625977 -1.09358859062194824
0.0558627545833587646 2.61265182495117188 -1.14049160480499268
-0.201858237385749817 2.17930221557617188 -1.19720292091369629
-0.29238969087600708 3.90078282356262207 -1.10432600975036621
-0.00297902151942253113 2.60197687149047852 -1.11916685104370117
0.0827145874500274658 2.69769692420959473 -1.16565287113189697
-1.08532655239105225 2.46654176712036133 -1.06929361820220947
0.022851407527923584 2.54863476753234863 -1.15488743782043457
0.0144366174936294556 2.45367193222045898 -1.13279855251312256
-1.09145748615264893 2.45848226547241211 -1.09010720252990723
0.694754242897033691 2.19537353515625 -1.08318746089935303
0.191321030259132385 1.36209762096405029 -1.09859538078308105
1.09164798259735107 2.6560814380645752 -1.08996069431304932
0.030133374035358429 2.96958732604980469 -1.13221967220306396
0.677553296089172363 2.19839739799499512 -1.09073281288146973
0.0213269516825675964 2.70586347579956055 -1.11656641960144043
0.0413517728447914124 2.73433327674865723 -1.14722919464111328
1.08062028884887695 2.6402580738067627 -1.05944263935089111
0.0586579330265522003 2.60988855361938477 -1.13117659091949463
-0.148078098893165588 2.14068508148193359 -1.19981908798217773
-0.373227238655090332 3.97232866287231445 -1.07345032691955566
1.10766541957855225 2.63144755363464355 -1.07835209369659424
-0.22598111629486084 2.29944157600402832 -1.17402446269989014
1.08698606491088867 2.64752078056335449 -1.07562422752380371
-0.494290411472320557 2.0597991943359375 -1.141304612159729
0.00889993458986282349 2.86388397216796875 -1.1709749698638916
-0.00153163820505142212 2.86232233047485352 -1.16862857341766357
-0.297724783420562744 3.90279889106750488 -1.1025317907333374
-0.187077566981315613 2.29570436477661133 -1.14640688896179199
