ply
format ascii 1.0
element vertex 256
comment vertices
property float x
property float y
property float z
end_header
1.47605538368225098 3.18351197242736816 -0.993289351463317871
-0.463856995105743408 1.88358843326568604 -1.20313584804534912
-2.85635638236999512 1.31070184707641602 -0.884151279926300049
1.12354671955108643 2.64408349990844727 -1.08559167385101318
-0.28654170036315918 3.8946385383605957 -1.07924056053161621
0.0272991284728050232 2.71093034744262695 -1.11496901512145996
-0.690474927425384521 4.41226482391357422 -0.480665087699890137
-1.82025527954101562 2.61226749420166016 -1.14348101615905762
0.913052082061767578 3.90596985816955566 -1.06907975673675537
0.842267513275146484 4.23705101013183594 -0.648008763790130615
0.550566315650939941 2.09817647933959961 -1.11748719215393066
-0.627504408359527588 2.74297857284545898 -0.923425137996673584
0.244777500629425049 3.06284117698669434 -1.09233593940734863
-1.093117356300354 2.45980954170227051 -1.09909689426422119
-1.47714459896087646 3.18838405609130859 -1.21696269512176514
0.856869161128997803 3.3379971981048584 -1.00686442852020264
0.275479555130004883 3.32122278213500977 -0.995910108089447021
-0.294596254825592041 3.9042205810546875 -1.09349429607391357
0.312402963638305664 2.74655914306640625 -1.14371621608734131
0.255436748266220093 2.60082077980041504 -1.10742866992950439
1.0943368673324585 2.63330888748168945 -1.07847940921783447
0.195040494203567505 1.3482820987701416 -1.11681008338928223
0.0464828014373779297 1.69414246082305908 -1.2580106258392334
1.13665783405303955 3.30138325691223145 -1.10669291019439697
0.502654314041137695 3.83109951019287109 -1.12275040149688721
-0.0651965215802192688 2.46113276481628418 -1.10061335563659668
1.43320548534393311 4.08021163940429688 0.118271797895431519
0.0236186683177947998 2.91027426719665527 -1.156227707862854
-0.959556639194488525 3.16209316253662109 -0.607645869255065918
0.0390194691717624664 2.64882063865661621 -1.13714504241943359
-0.857260406017303467 1.70687973499298096 -0.900884747505187988
0.673388004302978516 3.43291163444519043 -1.11245346069335938
-1.23484492301940918 4.28408050537109375 -0.993392348289489746
0.68587946891784668 2.1922910213470459 -1.08964025974273682
-0.187633663415908813 2.19858193397521973 -1.20162868499755859
0.445561677217483521 3.67772316932678223 -1.13344931602478027
-1.60807251930236816 3.60504436492919922 -0.831557989120483398
0.463731646537780762 3.92567110061645508 -1.07058084011077881
2.5346076488494873 3.49793076515197754 -1.13323855400085449
-0.622243285179138184 2.66008090972900391 -1.17930376529693604
1.1113736629486084 2.63205409049987793 -1.07373428344726562
-1.7870790958404541 3.06510543823242188 -1.11274111270904541
1.36015176773071289 4.6794586181640625 -0.513087272644042969
-0.384114891290664673 2.14453387260437012 -1.17773330211639404
0.741261959075927734 4.48983621597290039 -0.0181599929928779602
0.618635356426239014 3.84868288040161133 -1.05109620094299316
0.881986439228057861 3.60489106178283691 -0.916850030422210693
-0.398324638605117798 3.78345608711242676 -1.11217296123504639
-1.215828537940979 3.09677743911743164 -1.20470261573791504
0.756545543670654297 3.54742765426635742 -1.10718464851379395
0.996619105339050293 2.75842666625976562 -1.11484146118164062
-2.36410665512084961 2.70319271087646484 -0.978077888488769531
0.68255317211151123 2.21270179748535156 -1.10918939113616943
-1.09597313404083252 2.4623565673828125 -1.05191516876220703
0.452092856168746948 4.46010923385620117 -0.250555425882339478
0.194236889481544495 1.34500157833099365 -1.13026130199432373
0.880536437034606934 3.920745849609375 -1.03587532043457031
0.676320374011993408 2.19896531105041504 -1.10134518146514893
0.905794024467468262 2.69620800018310547 -1.12193202972412109
1.09439241886138916 3.77122068405151367 -1.11882627010345459
-2.14884090423583984 -0.194058418273925781 -1.13670492172241211
0.0889052152633666992 2.73692774772644043 -1.15043103694915771
0.205626547336578369 1.36199939250946045 -1.09090828895568848
-1.54520034790039062 4.13148307800292969 -1.14789855480194092
-0.168672740459442139 2.05845427513122559 -1.20034265518188477
-1.71852266788482666 1.55061817169189453 -1.19405150413513184
1.23896169662475586 4.13253879547119141 -0.992837667465209961
0.0640602484345436096 2.78485512733459473 -1.15135955810546875
-1.02398121356964111 2.28637909889221191 -1.28845000267028809
1.28348910808563232 3.9669189453125 -0.0376526713371276855
-0.413434028625488281 3.67565155029296875 -1.13090789318084717
0.315460175275802612 2.10448813438415527 -1.006439208984375
-0.969571113586425781 3.06728744506835938 -0.810263514518737793
-1.02475523948669434 3.0685122013092041 -0.610610723495483398
1.08266091346740723 2.6445307731628418 -1.06799101829528809
0.0673551410436630249 2.78710627555847168 -1.15063738822937012
0.0734774395823478699 2.70001959800720215 -1.12148690223693848
0.605981647968292236 2.98523712158203125 -1.12333917617797852
0.956446528434753418 2.62574982643127441 -1.11491155624389648
1.30089569091796875 4.08835172653198242 -0.502532720565795898
0.0223658718168735504 2.71340084075927734 -1.1171259880065918
-0.385087579488754272 2.18557643890380859 -1.14837813377380371
0.112869478762149811 2.88893818855285645 -1.12983167171478271
1.14832377433776855 4.60002994537353516 -0.651818335056304932
-0.344132721424102783 3.49858212471008301 -0.839654743671417236
-0.0662076026201248169 2.41334772109985352 -1.17468631267547607
0.678741991519927979 2.19767951965332031 -1.0923541784286499
-0.311296731233596802 3.90669369697570801 -1.07825100421905518
-1.30026364326477051 2.219757080078125 -0.954226374626159668
-0.544072389602661133 4.03659152984619141 -0.563977479934692383
-1.08970081806182861 2.46043086051940918 -1.10034525394439697
0.406673401594161987 4.89011383056640625 0.00966593623161315918
-0.921727180480957031 3.08657360076904297 -1.11734700202941895
-1.89601314067840576 1.83644688129425049 -0.758381485939025879
0.366460621356964111 3.54029703140258789 -1.06325769424438477
0.773209691047668457 3.54341769218444824 -1.12122952938079834
-0.0334119126200675964 3.18479776382446289 -1.15964746475219727
-0.298458188772201538 3.90275311470031738 -1.10243904590606689
-0.10580870509147644 2.36565136909484863 -1.15681242942810059
1.06656110286712646 4.01101207733154297 -0.127372384071350098
0.749171733856201172 3.55896520614624023 -1.1118389368057251
1.25443971157073975 4.14284133911132812 -0.390569478273391724
1.09434127807617188 2.67524147033691406 -1.09610497951507568
0.76860511302947998 4.0148167610168457 -1.10104870796203613
-0.242891132831573486 2.03089547157287598 -1.19461262226104736
-1.49184215068817139 3.28892803192138672 -1.2237849235534668
1.23049986362457275 2.6410212516784668 -1.09839820861816406
0.484580516815185547 4.60587120056152344 -0.600680947303771973
0.456111252307891846 4.51276826858520508 -0.197836339473724365
0.853538155555725098 2.47765517234802246 -0.973523318767547607
0.770430564880371094 3.57685494422912598 -1.12099361419677734
-2.39477944374084473 1.88189077377319336 -0.866136252880096436
0.811777293682098389 4.38417863845825195 -0.636434674263000488
-0.135247096419334412 2.4826056957244873 -1.1385502815246582
1.10182487964630127 2.63392925262451172 -1.07969307899475098
-1.15237724781036377 2.8001246452331543 -1.09930241107940674
-0.566329360008239746 4.61139440536499023 -0.53250652551651001
0.687292337417602539 2.21090030670166016 -1.1043696403503418
-1.58170819282531738 2.92933106422424316 -1.17811250686645508
-1.12661314010620117 3.38491582870483398 -0.947990000247955322
-1.8396761417388916 3.41094970703125 -0.815338492393493652
0.942458927631378174 4.08368206024169922 -1.0011446475982666
-0.920612812042236328 3.33277487754821777 -1.20546483993530273
0.198350757360458374 1.35188663005828857 -1.12685871124267578
0.0255299769341945648 5.02254295349121094 -0.293237864971160889
0.794462203979492188 4.09078598022460938 -1.08125030994415283
0.202083602547645569 1.53603518009185791 -1.1172788143157959
0.669321000576019287 2.21891617774963379 -1.09203898906707764
-1.08697199821472168 2.46176004409790039 -1.0912860631942749
1.18198311328887939 4.02283000946044922 -1.00347959995269775
0.0267819762229919434 2.18024015426635742 -1.24520981311798096
1.13248741626739502 2.63290715217590332 -1.07893097400665283
-0.653862118721008301 1.87799358367919922 -1.13333868980407715
-1.36232519149780273 3.24820280075073242 -1.21320176124572754
-0.926568925380706787 3.55292081832885742 -1.16270041465759277
0.758970797061920166 3.55160808563232422 -1.10949671268463135
-0.460541516542434692 4.04180145263671875 -0.935149669647216797
-1.09261441230773926 2.45987772941589355 -1.07026755809783936
0.738133132457733154 3.56533336639404297 -1.10251963138580322
-0.913188576698303223 3.40818572044372559 -1.16090846061706543
0.83373260498046875 2.69265532493591309 -1.16259968280792236
0.732365667819976807 3.55605006217956543 -1.14306473731994629
1.36699843406677246 1.52573323249816895 -0.93078160285949707
0.667211592197418213 2.21408224105834961 -1.12733781337738037
1.94681215286254883 2.49219799041748047 -0.950631022453308105
-1.40773725509643555 2.32699847221374512 -1.08822774887084961
0.0767232924699783325 2.68127799034118652 -1.11673331260681152
0.473527312278747559 2.51179409027099609 -1.12780952453613281
0.232901379466056824 2.91144204139709473 -1.14053487777709961
1.50596332550048828 3.86824297904968262 -1.01503479480743408
-0.927104771137237549 2.97085809707641602 -1.29289138317108154
-0.173409685492515564 2.51366686820983887 -1.12888622283935547
-0.729665815830230713 3.83770513534545898 -0.670776665210723877
0.179239183664321899 1.35249423980712891 -1.11582636833190918
-0.433007180690765381 2.00702095031738281 -1.2032468318939209
-0.461257368326187134 1.9588395357131958 -1.20170187950134277
1.69817888736724854 4.51212739944458008 -0.603618979454040527
0.529545307159423828 3.72933316230773926 -0.625486254692077637
-0.697653889656066895 2.85999274253845215 -0.761393904685974121
-1.24731588363647461 3.27997899055480957 -1.09255123138427734
1.3918454647064209 4.49867105484008789 -0.87871086597442627
-0.661842763423919678 2.87600088119506836 -0.789784014225006104
1.91747784614562988 3.13880133628845215 -0.496176302433013916
-0.0924166887998580933 2.67438721656799316 -1.14975428581237793
0.556161940097808838 2.69632506370544434 -1.09056651592254639
0.193247169256210327 1.35974287986755371 -1.10015380382537842
0.690104484558105469 2.19123601913452148 -1.08353495597839355
0.696122407913208008 3.5116732120513916 -1.0948333740234375
0.336389243602752686 3.02364921569824219 -1.12444126605987549
0.487227559089660645 3.75211191177368164 -1.12692797183990479
0.668269813060760498 2.20806479454040527 -1.0917431116104126
0.691130220890045166 2.20702552795410156 -1.07568585872650146
1.10341095924377441 2.64885044097900391 -1.07807564735412598
-1.40882515907287598 2.16677117347717285 -0.96085059642791748
0.68476337194442749 2.20802903175354004 -1.11074364185333252
-1.47056567668914795 2.33503437042236328 -1.24412119388580322
-1.01791274547576904 3.43360567092895508 -1.09191417694091797
-2.17173194885253906 2.73655462265014648 -0.96271204948425293
-1.98690950870513916 -0.380043745040893555 -1.14031684398651123
0.814729154109954834 3.4696190357208252 -1.08559596538543701
-0.981304466724395752 3.72916173934936523 -1.03712248802185059
1.55401718616485596 2.13379907608032227 -1.06432807445526123
-0.817722141742706299 2.19299697875976562 -1.30040979385375977
-0.0260711759328842163 2.86287283897399902 -1.17922639846801758
0.121500842273235321 2.81312203407287598 -1.13649225234985352
0.385204970836639404 3.54180335998535156 -1.02403891086578369
0.243581011891365051 2.63085269927978516 -0.99723207950592041
0.734167218208312988 3.57761359214782715 -1.12045609951019287
0.093098767101764679 2.69474697113037109 -1.16422915458679199
0.992480576038360596 3.07007884979248047 -1.12976551055908203
-0.284957826137542725 2.27487540245056152 -1.15396738052368164
1.29682552814483643 3.84649419784545898 -1.03758764266967773
0.671485543251037598 2.20339560508728027 -1.10662972927093506
1.10609221458435059 2.63793420791625977 -1.09358859062194824
-0.546527087688446045 4.14336729049682617 -0.350666522979736328
0.322790980339050293 3.08209085464477539 -1.07511162757873535
0.614123821258544922 4.64873790740966797 -0.726719498634338379
0.0558627545833587646 2.61265182495117188 -1.14049160480499268
-0.201858237385749817 2.17930221557617188 -1.19720292091369629
0.758788406848907471 3.70794916152954102 -0.562798023223876953
1.29858636856079102 3.03096318244934082 -0.935662686824798584
-0.29238969087600708 3.90078282356262207 -1.10432600975036621
-0.00297902151942253113 2.60197687149047852 -1.11916685104370117
0.0827145874500274658 2.69769692420959473 -1.16565287113189697
-1.08532655239105225 2.46654176712036133 -1.06929361820220947
0.022851407527923584 2.54863476753234863 -1.15488743782043457
0.0144366174936294556 2.45367193222045898 -1.13279855251312256
-2.31957006454467773 4.03316736221313477 -0.929971933364868164
-1.09145748615264893 2.45848226547241211 -1.09010720252990723
0.529038608074188232 2.83130836486816406 -0.929250597953796387
-1.61000978946685791 3.58762931823730469 -0.966694831848144531
0.694754242897033691 2.19537353515625 -1.08318746089935303
0.191321030259132385 1.36209762096405029 -1.09859538078308105
1.09164798259735107 2.6560814380645752 -1.08996069431304932
-1.49832272529602051 4.39904356002807617 -1.15212392807006836
-0.672254741191864014 1.98911142349243164 -0.841448366641998291
0.030133374035358429 2.96958732604980469 -1.13221967220306396
0.677553296089172363 2.19839739799499512 -1.09073281288146973
-0.996469259262084961 3.30661582946777344 -0.478440523147583008
0.0213269516825675964 2.70586347579956055 -1.11656641960144043
0.0413517728447914124 2.73433327674865723 -1.14722919464111328
-1.63840067386627197 3.75574564933776855 -1.16399776935577393
-0.89746391773223877 2.92423248291015625 -0.776946425437927246
1.08062028884887695 2.6402580738067627 -1.05944263935089111
0.0586579330265522003 2.60988855361938477 -1.13117659091949463
-0.148078098893165588 2.14068508148193359 -1.19981908798217773
-0.373227238655090332 3.97232866287231445 -1.07345032691955566
-1.11630523204803467 3.06369113922119141 -1.27561759948730469
1.77652454376220703 4.53263616561889648 -0.613068699836730957
1.14833176136016846 4.53794384002685547 -0.648156464099884033
0.791546463966369629 4.96464681625366211 -0.31704065203666687
-1.97713994979858398 2.48325777053833008 -1.06574654579162598
0.530874013900756836 2.60505151748657227 -1.04656457901000977
1.10766541957855225 2.63144755363464355 -1.07835209369659424
0.204060077667236328 2.27852964401245117 -1.08634567260742188
1.29833853244781494 4.13753271102905273 -0.0206953585147857666
-0.22598111629486084 2.29944157600402832 -1.17402446269989014
1.50148773193359375 4.20511484146118164 -0.718437075614929199
0.820275247097015381 4.02253150939941406 -1.0444183349609375
-0.526137948036193848 2.96048450469970703 -0.899621844291687012
0.59955596923828125 4.42538785934448242 -0.72290414571762085
1.79191064834594727 4.2073359489440918 -1.01926779747009277
1.08698606491088867 2.64752078056335449 -1.07562422752380371
-0.494290411472320557 2.0597991943359375 -1.141304612159729
0.00889993458986282349 2.86388397216796875 -1.1709749698638916
-1.3558650016784668 3.49491524696350098 -1.1904374361038208
-1.40082478523254395 2.86818408966064453 -1.25112032890319824
0.656846761703491211 4.07988357543945312 -1.10636234283447266
0.861977756023406982 4.50386333465576172 -0.35302242636680603
-0.00153163820505142212 2.86232233047485352 -1.16862857341766357
0.22962149977684021 1.55045318603515625 -1.25383758544921875
0.807962536811828613 4.2956700325012207 -0.586937487125396729
0.762147068977355957 3.87398052215576172 -1.08131563663482666
-0.297724783420562744 3.90279889106750488 -1.1025317907333374
-0.187077566981315613 2.29570436477661133 -1.14640688896179199
0.727166473865509033 3.78709650039672852 -0.868909716606140137
