ply
format ascii 1.0
element vertex 256
comment vertices
property float x
property float y
property float z
end_header
1.0182112455368042 4.06003570556640625 -0.60759657621383667
-0.383450150489807129 1.97075700759887695 -1.23685300350189209
-2.01116585731506348 2.82025909423828125 -0.514535069465637207
1.18370425701141357 2.74484109878540039 -1.11806666851043701
-0.378239274024963379 4.12819099426269531 -0.936973869800567627
-0.0191277563571929932 2.7275536060333252 -1.13768982887268066
-0.58671867847442627 4.82891511917114258 -0.361154884099960327
-1.7534639835357666 2.73005557060241699 -1.1749800443649292
0.998132467269897461 4.03126811981201172 -0.952395796775817871
0.722694933414459229 4.54263401031494141 -0.530077636241912842
0.427996277809143066 2.04861903190612793 -1.16896188259124756
-0.943603634834289551 4.14053869247436523 -0.693768560886383057
0.284637093544006348 3.08634400367736816 -1.06567049026489258
-1.07812488079071045 2.42663025856018066 -1.11137962341308594
-1.31293380260467529 3.59887862205505371 -1.17586672306060791
0.970448791980743408 3.70450401306152344 -0.878633499145507812
-0.11080719530582428 4.63168191909790039 -0.567272961139678955
-0.32003214955329895 3.90792250633239746 -1.12531328201293945
0.382489562034606934 2.74365854263305664 -1.22361600399017334
0.458561122417449951 3.87228775024414062 -0.705655395984649658
1.10692501068115234 2.61206507682800293 -1.0707700252532959
0.18609243631362915 1.35616767406463623 -1.0843813419342041
-0.796714425086975098 3.03752899169921875 -1.07643651962280273
1.14679765701293945 3.30069732666015625 -1.14814651012420654
0.735434532165527344 4.09582662582397461 -0.974827051162719727
-0.0738121569156646729 2.45621585845947266 -1.12059950828552246
1.31132888793945312 4.24652242660522461 -0.161257803440093994
-0.0110577940940856934 2.97552895545959473 -1.1598811149597168
-1.0738222599029541 4.35501575469970703 -0.373329430818557739
0.0256219804286956787 2.67680644989013672 -1.15888381004333496
-1.49988961219787598 3.62051939964294434 -0.408701807260513306
0.583900392055511475 3.27592349052429199 -1.2292475700378418
-1.03635001182556152 4.3875579833984375 -0.904783546924591064
0.680000722408294678 2.1510918140411377 -1.09409964084625244
-0.185918152332305908 2.19175195693969727 -1.22205591201782227
0.372520029544830322 4.76650619506835938 -0.761565923690795898
-1.17801165580749512 4.83210563659667969 -0.454975396394729614
0.614304125308990479 4.35905075073242188 -0.877291738986968994
1.55458748340606689 4.15988349914550781 -0.964142978191375732
-0.641400516033172607 2.67109560966491699 -1.1537015438079834
1.1537553071975708 2.67974400520324707 -1.06225299835205078
-1.41586208343505859 3.63440513610839844 -0.919486820697784424
0.811772823333740234 4.76627111434936523 -0.382786661386489868
-0.344961345195770264 2.20055103302001953 -1.18690013885498047
0.640947341918945312 4.84070205688476562 -0.126778692007064819
0.610746920108795166 4.21047449111938477 -0.833693385124206543
0.662128448486328125 4.43840360641479492 -0.623673915863037109
-0.464120864868164062 3.67922186851501465 -1.16567587852478027
-1.09460508823394775 3.88041090965270996 -1.16568863391876221
0.734917283058166504 3.56545090675354004 -1.10386598110198975
0.865274906158447266 2.88685941696166992 -1.17489612102508545
-1.50832188129425049 3.80816054344177246 -0.662107765674591064
0.628510415554046631 2.25707745552062988 -1.13425123691558838
-1.10383296012878418 2.49930381774902344 -1.02427434921264648
0.0134522831067442894 4.84705257415771484 -0.282000571489334106
0.2189808189868927 1.42013287544250488 -1.15848112106323242
0.972583532333374023 4.04898548126220703 -0.916327953338623047
0.68337714672088623 2.20288825035095215 -1.1043468713760376
0.748832881450653076 2.65667819976806641 -1.1437455415725708
1.15596199035644531 3.82156229019165039 -1.14633536338806152
-2.04012918472290039 2.61104011535644531 -0.67308509349822998
0.109441466629505157 2.72998523712158203 -1.17360270023345947
0.239956825971603394 1.40889608860015869 -1.04723978042602539
-1.15938138961791992 4.17762565612792969 -1.06747913360595703
-0.168951839208602905 2.03460693359375 -1.2251431941986084
-1.42808282375335693 2.70372128486633301 -1.0670769214630127
1.1616750955581665 4.2127079963684082 -0.921557188034057617
0.0303573012351989746 2.83331060409545898 -1.16578269004821777
-1.21644365787506104 3.0229489803314209 -1.21475780010223389
1.24675047397613525 4.02691555023193359 -0.20585709810256958
-0.718817949295043945 4.55487394332885742 -0.848591446876525879
0.65776139497756958 3.58002305030822754 -0.691941618919372559
-0.986766636371612549 4.27692556381225586 -0.572509944438934326
-1.15646350383758545 4.16902351379394531 -0.391057342290878296
1.05863404273986816 2.69884061813354492 -1.06003594398498535
0.0365664288401603699 2.83635735511779785 -1.16419768333435059
0.084529586136341095 2.69757723808288574 -1.14608311653137207
0.559156835079193115 4.09561443328857422 -0.84254986047744751
0.681972026824951172 3.90683507919311523 -0.681692540645599365
0.886477112770080566 4.52679681777954102 -0.464360088109970093
-0.0291696786880493164 2.7317049503326416 -1.14071714878082275
-0.329898446798324585 2.24378776550292969 -1.12848091125488281
0.0915092229843139648 2.9597172737121582 -1.11618852615356445
0.804336309432983398 4.66676139831542969 -0.49900972843170166
-0.239141941070556641 4.76284933090209961 -0.495000600814819336
-0.0372982285916805267 2.4170527458190918 -1.22232770919799805
0.689151227474212646 2.20673346519470215 -1.08110713958740234
-0.367585897445678711 3.95648193359375 -1.07209479808807373
-1.3142547607421875 3.80880212783813477 -0.575607836246490479
-0.937149167060852051 4.76601028442382812 -0.390796899795532227
-1.08096122741699219 2.48787760734558105 -1.12297654151916504
0.29257240891456604 5.13576269149780273 -0.118424504995346069
-0.822859644889831543 4.07154178619384766 -0.89072871208190918
-1.76722919940948486 3.47972917556762695 -0.447840034961700439
0.447288632392883301 4.30223798751831055 -0.718860030174255371
1.02431678771972656 3.63659358024597168 -1.01555562019348145
-0.00289992988109588623 3.24260854721069336 -1.13031458854675293
-0.303794741630554199 3.92926645278930664 -1.13782799243927002
-0.0754166245460510254 2.38176131248474121 -1.16347074508666992
0.901503384113311768 4.41183233261108398 -0.20614701509475708
0.758535087108612061 3.55243802070617676 -1.14342451095581055
0.923000335693359375 4.58915090560913086 -0.401691257953643799
0.913343191146850586 2.61666464805603027 -1.14819633960723877
0.852332353591918945 4.16966056823730469 -0.990802466869354248
-0.222649067640304565 2.04025793075561523 -1.22826457023620605
-1.31884050369262695 3.57142877578735352 -1.21245169639587402
1.34300410747528076 2.88061928749084473 -1.14881134033203125
0.631890952587127686 4.67087936401367188 -0.617164969444274902
0.363459765911102295 4.92415332794189453 -0.312449753284454346
0.820755064487457275 3.64725923538208008 -0.609067261219024658
0.644838631153106689 3.46413636207580566 -1.1280522346496582
-1.90112316608428955 2.95219159126281738 -0.578573703765869141
0.740846157073974609 4.57905054092407227 -0.563630104064941406
-0.185047239065170288 2.53106117248535156 -1.15744876861572266
1.11999762058258057 2.64779043197631836 -1.07570850849151611
-1.22521400451660156 3.63891124725341797 -0.815501689910888672
-0.567899703979492188 4.8136591911315918 -0.406139552593231201
0.608128666877746582 2.2617337703704834 -1.11659061908721924
-1.41812825202941895 3.29192304611206055 -1.0767444372177124
-0.949898898601531982 4.43900346755981445 -0.708874642848968506
-1.22945713996887207 4.79971885681152344 -0.398634731769561768
0.764737725257873535 4.38455677032470703 -0.756459474563598633
-1.1464536190032959 3.51450133323669434 -1.05756580829620361
0.215321525931358337 1.38792991638183594 -1.11535000801086426
-0.0419908575713634491 5.05646705627441406 -0.350493192672729492
0.795828104019165039 4.25660610198974609 -0.89097827672958374
0.222938239574432373 1.69982075691223145 -1.16566181182861328
0.512716472148895264 2.38473606109619141 -1.13796854019165039
-1.04866349697113037 2.4816286563873291 -1.1047133207321167
1.09412229061126709 4.16039800643920898 -0.905108630657196045
0.343262672424316406 4.06185436248779297 -0.771158456802368164
1.20974981784820557 2.66603755950927734 -1.0757606029510498
-0.497190713882446289 2.00756597518920898 -1.14816999435424805
-1.25302064418792725 3.62039613723754883 -1.19523847103118896
-0.240184292197227478 4.60318851470947266 -0.815157115459442139
0.746749401092529297 3.61133027076721191 -1.12993848323822021
-0.71941375732421875 4.704986572265625 -0.703197717666625977
-1.07097244262695312 2.38626909255981445 -1.04594075679779053
0.785971283912658691 3.51648092269897461 -1.08345305919647217
-0.869449973106384277 3.99840950965881348 -1.12866175174713135
0.537732303142547607 4.0323634147644043 -0.767045140266418457
0.776796936988830566 3.79619479179382324 -0.897308230400085449
1.0276641845703125 3.52970600128173828 -0.422520160675048828
0.650892138481140137 2.32669472694396973 -1.18547475337982178
1.21725893020629883 3.9149777889251709 -0.567334651947021484
-1.30043303966522217 2.93894481658935547 -0.916734457015991211
0.0913062691688537598 2.68874835968017578 -1.13336014747619629
0.492952197790145874 4.11354732513427734 -0.621973216533660889
0.25124204158782959 2.9666290283203125 -1.09373176097869873
1.1985630989074707 4.10810327529907227 -0.886682748794555664
-1.10245978832244873 3.56519317626953125 -1.26648712158203125
-0.24576076865196228 2.54984188079833984 -1.14078724384307861
-0.851716279983520508 4.6364593505859375 -0.511677980422973633
0.174480229616165161 1.41673755645751953 -1.12305688858032227
-0.380586415529251099 2.08357048034667969 -1.22925734519958496
-0.401400148868560791 2.04825353622436523 -1.23009967803955078
0.835923731327056885 4.74151229858398438 -0.431537806987762451
0.517264723777770996 4.51137542724609375 -0.445491433143615723
-0.979426920413970947 4.32283496856689453 -0.417842656373977661
-1.16612482070922852 3.9413607120513916 -0.88071674108505249
1.1664426326751709 4.46620321273803711 -0.771365165710449219
-0.906072735786437988 4.28301095962524414 -0.500114798545837402
1.43449544906616211 3.77396035194396973 -0.386303037405014038
-0.155738860368728638 2.69927597045898438 -1.17785489559173584
0.521691083908081055 2.66117978096008301 -1.1021343469619751
0.214888811111450195 1.4280846118927002 -1.08434104919433594
0.666304409503936768 2.18522882461547852 -1.07005870342254639
0.519875764846801758 3.34020757675170898 -1.10091650485992432
0.407118231058120728 4.14827823638916016 -0.807090401649475098
0.714855074882507324 4.04850912094116211 -0.954150497913360596
0.785443663597106934 2.35556554794311523 -1.13250517845153809
0.73698049783706665 2.30347037315368652 -1.05693268775939941
1.0019528865814209 2.65229630470275879 -1.07920479774475098
-1.43971753120422363 3.70185756683349609 -0.526600241661071777
0.64302361011505127 2.19567513465881348 -1.14770388603210449
-1.32675206661224365 3.02873849868774414 -1.16381502151489258
-1.01060295104980469 4.166473388671875 -0.898220419883728027
-1.47692489624023438 3.76909375190734863 -0.662110626697540283
-2.01651215553283691 2.62357044219970703 -0.612285435199737549
1.01340961456298828 3.78978681564331055 -1.02317464351654053
-0.701806247234344482 4.24689817428588867 -0.917823195457458496
0.950907349586486816 3.53553223609924316 -0.701375782489776611
0.0499699711799621582 4.22151470184326172 -0.698954641819000244
-0.0915319174528121948 2.90889692306518555 -1.18639171123504639
0.118194639682769775 2.86638689041137695 -1.1344681978225708
0.485063374042510986 4.3400416374206543 -0.693117439746856689
-0.0409642010927200317 4.62947988510131836 -0.463511109352111816
1.0055687427520752 3.4803009033203125 -1.12881302833557129
0.128757849335670471 2.69565963745117188 -1.18184518814086914
1.06159007549285889 3.02837181091308594 -1.17224597930908203
-0.285236597061157227 2.32191300392150879 -1.13603520393371582
0.794755220413208008 4.50936651229858398 -0.72918468713760376
0.660687565803527832 2.23133182525634766 -1.11078107357025146
1.13741588592529297 2.67760682106018066 -1.12297749519348145
-0.617202937602996826 4.81589508056640625 -0.271903395652770996
0.534374594688415527 3.90588784217834473 -0.831830620765686035
0.642620682716369629 4.73982000350952148 -0.61092221736907959
0.0767626762390136719 2.6413581371307373 -1.1598283052444458
-0.201701819896697998 2.17011308670043945 -1.21597099304199219
0.249416947364807129 4.52324008941650391 -0.371678292751312256
0.910704553127288818 4.07137870788574219 -0.468961656093597412
-0.294773399829864502 3.89047074317932129 -1.12677252292633057
-0.0376872718334197998 2.62441039085388184 -1.13753557205200195
0.120236262679100037 2.69942402839660645 -1.19063210487365723
-1.05059468746185303 2.52087140083312988 -1.0701289176940918
0.0644058585166931152 2.54152202606201172 -1.18808388710021973
0.038949720561504364 2.42203211784362793 -1.19336235523223877
-1.32779455184936523 4.39862823486328125 -0.740192174911499023
-1.06791162490844727 2.44414567947387695 -1.09661674499511719
-0.0459189414978027344 4.69877862930297852 -0.49127274751663208
-1.18922853469848633 4.50660514831542969 -0.633631289005279541
0.6402130126953125 2.168792724609375 -1.06977653503417969
0.209145054221153259 1.4320216178894043 -1.08286237716674805
1.04541599750518799 2.51436829566955566 -1.1368786096572876
-0.718074560165405273 4.67121028900146484 -0.928933262825012207
-1.25382435321807861 3.81598114967346191 -0.395485073328018188
-0.0141378641128540039 3.03165245056152344 -1.09280228614807129
0.674059927463531494 2.21814990043640137 -1.06848740577697754
-1.16817474365234375 4.19305086135864258 -0.352301090955734253
-0.0286918580532073975 2.71992731094360352 -1.14180254936218262
0.00577570497989654541 2.75507164001464844 -1.1785353422164917
-1.35287296772003174 3.79896926879882812 -1.08162951469421387
-1.0621192455291748 4.19336080551147461 -0.531927943229675293
1.07006669044494629 2.6704249382019043 -1.04268670082092285
0.0799135938286781311 2.63386154174804688 -1.15016365051269531
-0.148630142211914062 2.12308549880981445 -1.22673356533050537
-0.441306412220001221 4.1774144172668457 -0.953086972236633301
-1.21864461898803711 3.29122543334960938 -1.2168651819229126
0.862035274505615234 4.75284051895141602 -0.452135562896728516
0.794396579265594482 4.65372180938720703 -0.46700739860534668
0.671266317367553711 5.03136491775512695 -0.377319246530532837
-1.54324150085449219 3.65484786033630371 -0.717735886573791504
0.746144294738769531 3.67964744567871094 -0.767009258270263672
1.13506877422332764 2.6546483039855957 -1.06986045837402344
0.587432742118835449 3.64864969253540039 -0.836955547332763672
1.12518393993377686 4.28638696670532227 -0.234042629599571228
-0.242703676223754883 2.31705474853515625 -1.17872345447540283
0.843495547771453857 4.59377479553222656 -0.50325930118560791
0.876427173614501953 4.15505552291870117 -0.914439082145690918
-0.898343443870544434 4.45494556427001953 -0.586384415626525879
0.562078416347503662 4.63007831573486328 -0.65244370698928833
1.38079535961151123 4.29576921463012695 -0.915218114852905273
1.06367337703704834 2.79646444320678711 -1.12965941429138184
-0.443351566791534424 2.13488054275512695 -1.1457294225692749
-0.0383119285106658936 2.9201352596282959 -1.17878401279449463
-1.08330368995666504 3.98736810684204102 -1.146034836769104
-1.24624729156494141 3.39278626441955566 -1.11273801326751709
0.70291435718536377 4.28194189071655273 -0.912560045719146729
0.849869191646575928 4.68067646026611328 -0.374425143003463745
-0.0535057485103607178 2.91711950302124023 -1.17465567588806152
0.242719545960426331 3.95011210441589355 -0.681000053882598877
0.724104642868041992 4.57623434066772461 -0.494695127010345459
0.916777074337005615 4.00467443466186523 -0.991053998470306396
-0.341028273105621338 3.89505910873413086 -1.13965559005737305
-0.210382252931594849 2.3195650577545166 -1.12467861175537109
0.625416159629821777 4.46458292007446289 -0.61853492259979248
